<?xml version="1.0" standalone="no"?>
<!DOCTYPE svg PUBLIC "-//W3C//DTD SVG 20010904//EN"
 "http://www.w3.org/TR/2001/REC-SVG-20010904/DTD/svg10.dtd">
<svg version="1.0" xmlns="http://www.w3.org/2000/svg"
 width="273.000000pt" height="273.000000pt" viewBox="0 0 273.000000 273.000000"
 preserveAspectRatio="xMidYMid meet">
<metadata>
Created by potrace 1.14, written by Peter Selinger 2001-2017
</metadata>
<g transform="translate(0.000000,273.000000) scale(0.100000,-0.100000)"
fill="#000000" stroke="none">
<path d="M2570 2711 c0 -12 -15 -29 -37 -42 -21 -13 -51 -35 -66 -49 -90 -81
-644 -639 -706 -710 -93 -106 -105 -120 -233 -255 -57 -60 -135 -146 -173
-190 -60 -69 -193 -211 -275 -294 -14 -15 -33 -37 -42 -51 -9 -14 -66 -79
-128 -145 -61 -66 -123 -137 -136 -157 -13 -21 -31 -38 -39 -38 -9 0 -20 -11
-25 -24 -12 -32 -25 -39 -40 -21 -10 12 -8 22 13 53 14 20 29 54 33 75 3 21
17 50 29 65 12 15 28 45 35 67 7 22 20 49 30 60 10 11 25 43 35 70 9 28 25 59
34 70 10 11 24 38 31 60 7 22 20 49 30 60 10 11 25 43 35 70 9 28 25 59 34 70
10 11 24 38 31 60 7 22 21 54 31 71 10 17 26 51 34 75 9 23 22 50 30 59 8 9
24 42 35 74 10 31 27 69 37 84 11 15 25 45 32 67 8 22 22 50 32 63 10 13 23
40 30 60 7 20 22 51 34 67 11 17 27 48 35 70 7 22 22 52 33 66 12 18 17 34 12
48 -7 24 -81 66 -90 52 -3 -5 -27 -17 -53 -26 -26 -9 -81 -36 -122 -61 -41
-24 -95 -53 -120 -65 -44 -21 -74 -39 -219 -135 -40 -27 -88 -58 -105 -69 -44
-27 -118 -87 -241 -193 -99 -86 -187 -178 -208 -217 -8 -17 -24 -39 -36 -49
-12 -11 -21 -25 -21 -31 0 -7 -12 -30 -26 -51 -14 -21 -36 -68 -49 -104 -12
-36 -30 -85 -39 -110 -9 -25 -23 -80 -32 -124 -12 -61 -20 -79 -35 -83 -18 -5
-19 -19 -19 -339 0 -287 2 -334 15 -334 21 0 31 -24 48 -115 9 -44 28 -105 44
-135 24 -46 35 -57 73 -71 25 -9 49 -25 55 -38 10 -21 14 -21 275 -21 l266 0
11 30 c12 33 81 69 187 96 33 9 79 27 102 40 22 13 47 24 55 24 8 0 33 10 54
21 22 12 66 35 98 53 33 17 76 40 97 51 21 11 49 29 62 40 23 21 55 43 131 95
47 31 288 270 315 311 9 15 37 55 62 90 57 82 105 161 137 224 13 28 42 84 63
125 22 41 42 88 46 103 8 39 -29 91 -83 117 -23 10 -44 23 -47 28 -8 13 23
103 44 127 9 11 23 36 30 55 7 19 23 46 35 60 13 14 32 45 44 70 11 25 43 81
71 125 27 44 50 84 50 89 0 5 15 25 33 46 30 35 49 63 89 133 9 16 26 40 38
52 12 13 33 45 47 72 35 69 57 109 86 151 14 20 28 50 32 67 9 38 23 55 46 55
17 0 19 9 19 90 l0 90 -80 0 c-72 0 -80 -2 -80 -19z m-172 -394 c3 -16 -23
-65 -75 -140 -13 -18 -32 -51 -43 -74 -11 -23 -25 -45 -30 -48 -6 -4 -21 -27
-34 -53 -14 -26 -33 -52 -44 -59 -11 -6 -23 -24 -26 -40 -4 -15 -18 -44 -30
-63 -43 -65 -66 -105 -93 -159 -14 -30 -36 -70 -48 -88 -13 -18 -26 -49 -30
-70 -4 -20 -16 -55 -27 -76 -33 -65 -15 -111 63 -160 45 -27 45 -90 -1 -142
-10 -11 -23 -37 -30 -58 -6 -20 -20 -42 -31 -47 -10 -6 -26 -27 -34 -46 -8
-20 -26 -49 -40 -66 -14 -16 -25 -35 -25 -42 0 -7 -73 -87 -162 -177 -113
-114 -188 -181 -243 -217 -44 -28 -90 -58 -101 -66 -44 -31 -194 -106 -212
-106 -9 0 -34 -11 -54 -25 -20 -14 -61 -30 -90 -36 -29 -6 -69 -20 -88 -30
-19 -10 -91 -31 -160 -45 -264 -54 -286 -57 -305 -38 -21 21 -6 54 66 138 33
39 73 85 87 103 15 18 65 72 111 120 46 48 104 115 130 147 25 33 78 94 116
135 39 42 99 110 134 151 36 41 89 100 120 130 47 47 108 115 212 239 11 13
59 65 107 115 48 50 111 118 139 151 29 33 70 79 90 103 21 23 97 102 168 175
264 270 370 381 386 404 22 32 91 83 109 80 8 -1 16 -10 18 -20z m-1240 -219
c2 -16 -10 -54 -27 -90 -17 -34 -31 -68 -31 -74 0 -6 -11 -27 -24 -46 -13 -20
-29 -51 -35 -71 -7 -20 -20 -46 -31 -59 -10 -13 -23 -44 -30 -68 -6 -25 -25
-65 -41 -89 -16 -25 -29 -52 -29 -61 0 -10 -12 -35 -26 -56 -15 -21 -32 -55
-39 -74 -7 -19 -24 -53 -39 -74 -14 -21 -26 -47 -26 -56 0 -9 -12 -35 -26 -56
-15 -21 -32 -55 -39 -74 -7 -19 -24 -53 -39 -74 -14 -21 -26 -47 -26 -56 0 -9
-12 -35 -27 -56 -14 -21 -32 -57 -39 -79 -6 -22 -37 -87 -66 -145 -30 -58 -61
-123 -68 -144 -7 -21 -23 -54 -36 -74 -13 -19 -24 -43 -24 -52 0 -9 -12 -35
-26 -56 -15 -21 -33 -57 -41 -80 -12 -34 -79 -114 -97 -114 -12 0 -34 59 -62
165 -28 106 -29 119 -29 335 0 202 2 233 22 300 12 41 29 113 37 158 9 46 24
96 34 110 10 15 25 48 32 74 7 26 21 55 31 64 10 9 27 35 38 58 24 49 254 286
316 325 24 15 54 37 67 49 52 47 96 82 103 82 4 0 30 16 56 35 27 19 53 35 59
35 5 0 24 13 42 28 18 16 54 37 80 47 26 10 53 24 59 32 18 21 44 11 47 -19z"/>
</g>
</svg>
